<svg width="532" height="536" viewBox="0 0 532 536" fill="none" xmlns="http://www.w3.org/2000/svg">
<rect width="532" height="536" fill="#070707"/>
<path d="M268.128 260.136C221.312 260.136 198.802 298.51 183.008 355.896C215.381 314.519 231.952 296.312 268.128 296.312C304.304 296.312 322.272 311.715 353.248 355.896C341.013 301.466 314.944 260.136 268.128 260.136Z" fill="white"/>
<circle cx="266" cy="353.768" r="29.792" fill="white" stroke="white" stroke-width="4.256"/>
<line x1="266" y1="223.96" x2="266" y2="75" stroke="white" stroke-width="4.256"/>
<line y1="353.768" x2="148.96" y2="353.768" stroke="white" stroke-width="4.256"/>
<line x1="383.04" y1="353.768" x2="532" y2="353.768" stroke="white" stroke-width="4.256"/>
<line x1="351.743" y1="255.434" x2="457.074" y2="150.103" stroke="white" stroke-width="4.256"/>
<line x1="78.1131" y1="150.103" x2="183.444" y2="255.434" stroke="white" stroke-width="4.256"/>
<line x1="68.8235" y1="268.776" x2="149.348" y2="298.085" stroke="white" stroke-width="4.256"/>
<line x1="189.192" y1="150.709" x2="225.407" y2="228.372" stroke="white" stroke-width="4.256"/>
<line y1="-2.128" x2="85.692" y2="-2.128" transform="matrix(-0.422618 0.906308 0.906308 0.422618 346.904 151.608)" stroke="white" stroke-width="4.256"/>
<line y1="-2.128" x2="85.692" y2="-2.128" transform="matrix(-0.939693 0.34202 0.34202 0.939693 467.819 270.776)" stroke="white" stroke-width="4.256"/>
</svg>
