 <svg  version="1.0" xmlns="http://www.w3.org/2000/svg"  width="1350.000000pt" height="1359.000000pt" viewBox="0 0 1350.000000 1359.000000"  preserveAspectRatio="xMidYMid meet">  <g transform="translate(0.000000,1359.000000) scale(0.100000,-0.100000)" fill="#ffffff" stroke="none"> <path d="M6687 11684 c-4 -4 -7 -857 -7 -1896 l0 -1888 60 0 60 0 -2 1893 -3 1892 -50 3 c-28 2 -54 0 -58 -4z"/> <path d="M1971 9784 c-29 -24 -44 -74 -22 -74 13 0 2631 -2615 2631 -2628 0 -7 11 -12 25 -12 26 0 75 42 75 64 0 12 -2660 2676 -2672 2676 -3 0 -20 -12 -37 -26z"/> <path d="M10212 8478 c-732 -733 -1332 -1334 -1332 -1337 0 -2 11 -19 26 -38 36 -48 60 -43 114 23 32 40 2480 2484 2596 2592 8 7 14 15 14 17 0 11 -63 75 -74 75 -6 0 -611 -600 -1344 -1332z"/> <path d="M4778 9765 c-16 -9 -28 -24 -28 -36 0 -11 30 -82 66 -157 115 -240 190 -400 225 -484 13 -29 27 -58 32 -65 13 -18 47 -86 47 -96 0 -5 21 -52 46 -105 112 -234 134 -280 158 -332 13 -30 44 -98 69 -150 24 -52 59 -126 77 -165 63 -138 102 -221 129 -275 16 -30 31 -67 34 -82 4 -15 14 -33 22 -42 13 -13 19 -13 55 2 22 9 42 23 45 30 2 7 -25 74 -61 150 -76 159 -109 228 -157 332 -20 41 -55 118 -80 170 -25 52 -70 151 -102 220 -31 69 -75 163 -97 210 -22 47 -55 117 -73 155 -18 39 -61 127 -94 198 -34 70 -61 129 -61 132 0 2 -21 48 -46 102 -102 216 -113 239 -121 268 -11 35 -43 43 -85 20z"/> <path d="M8674 9743 c-19 -44 -54 -121 -116 -253 -25 -52 -71 -151 -103 -220 -32 -69 -75 -161 -95 -205 -21 -44 -56 -120 -79 -170 -23 -49 -62 -130 -87 -180 -24 -49 -44 -94 -44 -98 0 -5 -20 -50 -44 -100 -25 -51 -63 -130 -84 -177 -88 -189 -117 -251 -178 -376 -35 -71 -64 -138 -64 -147 0 -14 68 -57 90 -57 4 0 15 19 24 43 10 23 31 69 46 102 15 33 37 80 48 105 11 25 52 112 91 193 39 82 71 151 71 154 0 2 22 50 49 106 64 133 113 239 141 307 13 30 29 62 37 71 7 8 13 23 13 31 0 9 7 21 15 28 8 7 15 18 15 25 0 12 36 91 150 330 21 44 49 105 63 135 13 30 38 84 54 120 17 36 33 72 37 80 3 8 15 29 26 45 50 77 52 107 6 129 -51 24 -65 20 -82 -21z"/> <path d="M6500 6960 c-156 -25 -334 -72 -346 -91 -3 -5 -16 -9 -29 -9 -13 0 -26 -4 -30 -9 -3 -5 -40 -26 -83 -46 -141 -67 -272 -160 -409 -292 -96 -92 -207 -219 -253 -289 -8 -12 -30 -43 -47 -69 -18 -25 -33 -49 -33 -52 0 -3 -13 -22 -28 -42 -16 -20 -45 -70 -67 -111 -21 -41 -46 -86 -55 -100 -22 -32 -88 -172 -166 -350 -9 -19 -22 -48 -30 -63 -8 -16 -14 -36 -14 -46 0 -9 -4 -21 -10 -27 -5 -5 -16 -30 -24 -54 -8 -25 -35 -103 -61 -175 -25 -71 -50 -143 -55 -160 -9 -33 -9 -34 -81 -232 -28 -78 -49 -150 -47 -159 6 -34 26 -24 64 33 44 67 173 241 218 294 17 20 42 51 56 70 24 32 107 129 234 274 147 168 464 465 495 465 4 0 21 13 37 29 16 16 47 39 69 51 22 12 56 31 75 42 19 11 67 36 105 55 39 19 81 40 95 47 22 11 147 48 290 86 167 44 661 46 855 4 113 -25 298 -76 325 -89 14 -7 71 -36 128 -64 126 -63 174 -93 287 -178 155 -118 365 -330 552 -558 123 -150 285 -375 387 -538 9 -15 24 -31 33 -34 30 -12 30 20 1 101 -17 44 -33 97 -38 116 -4 19 -12 46 -17 60 -6 14 -17 48 -26 75 -8 28 -30 97 -47 155 -46 151 -92 286 -109 318 -5 9 -17 37 -27 62 -10 25 -27 68 -39 95 -12 28 -33 75 -45 105 -13 30 -27 60 -32 66 -4 6 -23 40 -42 75 -19 35 -45 84 -59 109 -14 25 -35 62 -46 83 -22 40 -34 56 -158 227 -70 96 -288 324 -374 391 -126 97 -293 192 -464 264 -80 33 -177 58 -332 84 -154 27 -424 27 -583 1z m445 -112 c257 -22 516 -107 741 -246 69 -43 193 -149 301 -259 162 -165 310 -375 433 -612 80 -155 171 -373 183 -439 6 -29 5 -31 -11 -23 -21 11 -115 102 -250 243 -340 354 -633 534 -1009 623 -147 35 -233 45 -458 51 -388 12 -702 -52 -983 -201 -214 -114 -361 -232 -639 -512 -127 -128 -237 -233 -244 -233 -66 0 242 653 425 900 118 159 293 342 390 407 23 15 58 40 78 56 48 36 255 140 333 165 105 35 236 63 360 77 145 15 194 16 350 3z"/> <path d="M1742 6808 c-7 -7 -12 -21 -12 -33 0 -12 -5 -26 -12 -33 -21 -21 -13 -25 232 -113 47 -17 101 -35 120 -41 19 -6 40 -13 45 -18 6 -4 19 -10 30 -13 11 -3 58 -20 105 -37 47 -18 103 -38 125 -45 22 -8 85 -30 140 -50 55 -20 111 -40 125 -45 14 -5 50 -18 80 -30 30 -12 105 -39 165 -60 61 -22 135 -48 165 -60 92 -35 134 -51 160 -60 14 -5 81 -29 150 -53 69 -25 141 -51 160 -57 19 -7 49 -18 65 -25 17 -7 55 -23 85 -35 30 -12 59 -26 64 -31 6 -5 13 -9 18 -9 10 0 48 79 48 101 0 16 -38 34 -120 58 -38 10 -173 57 -205 70 -20 9 -82 33 -145 57 -19 7 -75 27 -125 44 -49 17 -101 35 -113 41 -13 5 -52 18 -85 30 -34 11 -75 26 -92 33 -36 17 -139 54 -250 91 -44 15 -84 31 -90 36 -5 5 -17 9 -27 9 -9 0 -32 6 -50 14 -54 23 -107 43 -218 81 -102 36 -121 43 -185 70 -16 6 -59 22 -95 35 -127 44 -146 51 -187 70 -50 23 -55 24 -71 8z"/> <path d="M11709 6778 c-57 -22 -121 -46 -141 -54 -21 -8 -55 -20 -75 -28 -21 -8 -96 -36 -168 -61 -71 -25 -145 -53 -163 -61 -18 -7 -41 -14 -50 -14 -10 0 -22 -4 -28 -9 -9 -10 -74 -35 -129 -51 -16 -5 -73 -25 -125 -45 -52 -20 -106 -39 -120 -42 -14 -3 -34 -12 -45 -19 -11 -8 -28 -14 -38 -14 -10 0 -31 -6 -45 -14 -15 -7 -43 -19 -62 -25 -207 -71 -272 -95 -335 -122 -11 -5 -38 -15 -60 -22 -22 -8 -80 -29 -130 -47 -49 -17 -103 -35 -120 -40 -40 -10 -105 -38 -105 -45 0 -3 4 -13 10 -23 5 -9 14 -29 20 -44 5 -16 16 -28 24 -28 14 0 145 52 178 70 10 6 24 10 32 10 7 0 35 9 60 21 26 11 105 40 174 64 70 24 152 53 182 65 30 12 66 25 80 30 14 5 62 22 108 39 46 17 104 38 130 46 48 16 58 20 125 49 21 9 46 16 55 16 10 0 22 4 27 9 6 5 62 28 125 50 63 22 131 45 150 52 19 6 67 24 105 39 39 15 86 33 105 39 19 7 91 32 160 57 69 24 152 54 185 66 33 11 62 22 64 24 2 2 -4 19 -13 38 -9 19 -16 38 -16 44 0 23 -32 18 -131 -20z"/> <path d="M6591 5405 c-18 -8 -48 -15 -65 -15 -17 0 -40 -6 -51 -14 -11 -7 -31 -16 -45 -19 -59 -15 -185 -102 -266 -184 -46 -47 -84 -91 -84 -99 0 -8 -4 -14 -10 -14 -11 0 -82 -145 -98 -200 -37 -125 -42 -155 -42 -240 0 -135 27 -245 92 -377 155 -315 531 -499 868 -424 190 41 296 98 425 227 47 47 85 89 85 93 0 5 15 32 34 59 66 99 116 275 116 411 0 174 -68 366 -177 504 -71 89 -163 163 -260 210 -43 21 -91 45 -106 53 -16 8 -38 14 -50 14 -12 0 -44 7 -71 15 -65 20 -249 20 -295 0z m278 -126 c155 -26 329 -132 415 -252 105 -148 131 -235 131 -432 -1 -128 -3 -146 -27 -207 -86 -218 -220 -350 -428 -425 -68 -24 -88 -26 -220 -27 -133 0 -151 2 -220 27 -206 75 -337 204 -429 422 -24 56 -26 71 -26 220 0 142 3 167 23 224 31 87 46 115 108 197 151 201 408 297 673 253z"/> <path d="M1873 4672 l-1873 -2 0 -60 0 -60 1885 0 1886 0 -3 62 c-2 34 -7 62 -13 62 -5 1 -853 0 -1882 -2z"/> <path d="M9717 4674 c-4 -4 -7 -34 -7 -66 l0 -58 1895 0 1895 0 0 60 0 60 -1874 0 c-1031 0 -1881 2 -1888 5 -8 3 -17 2 -21 -1z"/> </g> </svg> 