<svg width="532" height="536" viewBox="0 0 532 536" fill="none" xmlns="http://www.w3.org/2000/svg">
<rect width="532" height="536" fill="#070707"/>
<path d="M266.405 71L470.271 419.75H62.5383L266.405 71Z" fill="white"/>
<path d="M461.561 414.598C458.18 420.376 460.151 427.75 465.964 431.07C471.778 434.389 479.232 432.396 482.614 426.619C485.996 420.841 484.024 413.467 478.211 410.148C472.397 406.828 464.943 408.821 461.561 414.598ZM163.011 246.749L470.94 422.57L473.236 418.647L165.307 242.826L163.011 246.749Z" fill="black"/>
<path d="M70.0606 414.598C73.4423 420.376 71.471 427.75 65.6576 431.07C59.8441 434.389 52.39 432.396 49.0082 426.619C45.6265 420.841 47.5978 413.467 53.4113 410.148C59.2247 406.828 66.6789 408.821 70.0606 414.598ZM368.611 246.749L60.6825 422.57L58.3863 418.647L366.315 242.826L368.611 246.749Z" fill="black"/>
<path d="M266.404 87.8018C273.099 87.8018 278.526 82.375 278.526 75.6806C278.526 68.9863 273.099 63.5594 266.404 63.5594C259.71 63.5594 254.283 68.9863 254.283 75.6806C254.283 82.375 259.71 87.8018 266.404 87.8018ZM268.677 422.939L268.677 75.6806H264.132L264.132 422.939H268.677Z" fill="black"/>
</svg>
