<?xml version="1.0" standalone="no"?>
<!DOCTYPE svg PUBLIC "-//W3C//DTD SVG 20010904//EN"
 "http://www.w3.org/TR/2001/REC-SVG-20010904/DTD/svg10.dtd">
<svg version="1.0" xmlns="http://www.w3.org/2000/svg"
 width="450.000000pt" height="453.000000pt" viewBox="0 0 450.000000 453.000000"
 preserveAspectRatio="xMidYMid meet">
<metadata>
Created by potrace 1.10, written by Peter Selinger 2001-2011
</metadata>
<g transform="translate(0.000000,453.000000) scale(0.100000,-0.100000)"
fill="#ffffff" stroke="none">
<path d="M1994 3488 c-103 -178 -277 -475 -386 -661 -109 -186 -198 -342 -198
-347 0 -8 800 -470 814 -470 3 0 6 400 6 890 0 869 0 890 -19 900 -11 5 -22
10 -24 10 -2 0 -89 -145 -193 -322z"/>
<path d="M2293 3798 l-23 -11 0 -889 c0 -488 2 -888 5 -888 7 0 799 452 812
464 9 8 -41 101 -208 386 -120 206 -295 504 -387 662 -92 158 -169 288 -172
287 -3 0 -15 -5 -27 -11z"/>
<path d="M3090 2431 c-14 -10 -197 -116 -407 -235 -211 -120 -383 -221 -383
-225 0 -4 141 -88 313 -186 171 -98 532 -303 800 -457 268 -153 495 -278 503
-278 25 0 89 -112 -639 1130 -82 140 -152 258 -156 262 -3 4 -17 -1 -31 -11z"/>
<path d="M1149 2043 c-128 -219 -309 -528 -402 -688 -93 -159 -171 -293 -174
-297 -19 -32 65 15 1439 800 103 59 188 110 188 113 0 4 -783 456 -810 467 -4
2 -112 -176 -241 -395z"/>
<path d="M1415 1475 c-445 -255 -810 -470 -810 -477 0 -11 155 -13 813 -16
l812 -2 0 480 c0 264 -1 480 -2 479 -2 0 -367 -210 -813 -464z"/>
<path d="M2270 1455 l0 -475 810 0 c765 0 810 1 810 18 -1 12 -53 46 -168 111
-92 52 -454 258 -804 458 -350 199 -639 363 -642 363 -4 0 -6 -214 -6 -475z"/>
</g>
</svg>
