<?xml version="1.0" encoding="UTF-8"?>
<svg version="1.1" xmlns="http://www.w3.org/2000/svg" width="532" height="536">
<path d="M0 0 C2.08809941 1.52868817 4.14923788 2.93207122 6.328125 4.3125 C7.19179688 4.9209375 8.05546875 5.529375 8.9453125 6.15625 C8.9453125 6.81625 8.9453125 7.47625 8.9453125 8.15625 C9.5640625 8.465625 10.1828125 8.775 10.8203125 9.09375 C12.1953125 9.78125 13.5703125 10.46875 14.9453125 11.15625 C14.9453125 11.81625 14.9453125 12.47625 14.9453125 13.15625 C15.82932739 13.5591626 15.82932739 13.5591626 16.73120117 13.97021484 C18.95630658 15.16213921 20.53077065 16.41602046 22.37109375 18.1328125 C22.99927002 18.71691895 23.62744629 19.30102539 24.2746582 19.90283203 C24.92909912 20.52270996 25.58354004 21.14258789 26.2578125 21.78125 C27.27137817 22.73620361 27.27137817 22.73620361 28.30541992 23.71044922 C32.80409801 27.98509281 37.01968509 32.3468913 40.9453125 37.15625 C41.67492187 37.99800781 42.40453125 38.83976562 43.15625 39.70703125 C54.15990801 52.53306164 63.62706074 66.45878567 71.9453125 81.15625 C72.31221191 81.79433594 72.67911133 82.43242187 73.05712891 83.08984375 C90.58529048 113.7850205 101.9647643 150.7931403 102.18359375 186.21875 C102.1916655 187.48227295 102.19973724 188.7457959 102.20805359 190.04760742 C102.22185419 192.72383231 102.23287791 195.39993594 102.24047852 198.07617188 C102.24923911 200.7680053 102.27222091 203.4585789 102.30200195 206.15039062 C102.90260791 260.56059324 85.20117877 310.56521076 52.9453125 354.15625 C52.50106934 354.76033691 52.05682617 355.36442383 51.59912109 355.98681641 C17.78471172 401.60256911 -32.64620042 433.62045805 -87.4296875 447.53125 C-88.31809326 447.75772217 -89.20649902 447.98419434 -90.12182617 448.2175293 C-93.088905 448.92978881 -96.0631174 449.55474804 -99.0546875 450.15625 C-100.34511963 450.42477783 -101.63555176 450.69330566 -102.96508789 450.9699707 C-116.52009977 453.56847717 -130.03913702 453.64769105 -143.80444336 453.60229492 C-147.71847498 453.59380146 -151.63103386 453.62262436 -155.54492188 453.65429688 C-208.99838358 453.80391195 -262.89690124 434.5055202 -304.0546875 400.15625 C-304.55081543 399.74503906 -305.04694336 399.33382813 -305.55810547 398.91015625 C-331.0115784 377.78902266 -351.59552812 353.93120399 -368.0546875 325.15625 C-368.4259375 324.51236328 -368.7971875 323.86847656 -369.1796875 323.20507812 C-381.61289892 301.4253727 -389.56083023 277.47985794 -394.8046875 253.03125 C-395.10294434 251.65658569 -395.10294434 251.65658569 -395.40722656 250.25415039 C-398.60172439 234.58165912 -399.43663876 218.92564107 -399.3671875 202.96875 C-399.36503235 202.0713913 -399.3628772 201.17403259 -399.36065674 200.2494812 C-399.30726439 186.35527906 -398.76882112 172.82033938 -396.0546875 159.15625 C-395.86132812 158.15239258 -395.66796875 157.14853516 -395.46875 156.11425781 C-386.39086224 110.20648282 -365.68698125 68.99090828 -334.15625 34.48046875 C-332.32083913 32.45059985 -330.56087306 30.3791564 -328.8046875 28.28125 C-294.40798181 -11.01797466 -241.63629408 -35.82518406 -191.0546875 -44.84375 C-190.20213379 -45.00601074 -189.34958008 -45.16827148 -188.47119141 -45.33544922 C-123.12853987 -57.44427105 -53.03818849 -39.09448783 0 0 Z " fill="#404040" transform="translate(414.0546875,64.84375)"/>
<path d="M0 0 C12.00764518 10.45974021 19.54066941 25.83017596 20.98046875 41.66796875 C22.12794812 59.74076875 16.1121023 76.67534944 4.30224609 90.23291016 C-6.50570151 101.9671392 -22.41234377 108.90539432 -38.25 109.79296875 C-54.19710192 110.1986184 -68.50579486 105.54606863 -81.01953125 95.66796875 C-81.65503906 95.19617188 -82.29054687 94.724375 -82.9453125 94.23828125 C-94.54488644 85.1335159 -100.83476764 70.39317195 -103.70703125 56.29296875 C-105.28473953 37.9915527 -101.11407416 21.60477104 -89.83203125 6.91796875 C-66.7774194 -19.9275021 -26.92844977 -22.31844957 0 0 Z " fill="#000000" transform="translate(305.01953125,218.33203125)"/>
<path d="M0 0 C5.45540263 0.82990465 8.49780439 5.04422916 12 9 C14 12 14 12 15 14 C10.94772191 12.38873705 8.23778153 9.49978002 5.25 6.4375 C4.74339844 5.93025391 4.23679687 5.42300781 3.71484375 4.90039062 C0 1.14048812 0 1.14048812 0 0 Z " fill="#4E4E4E" transform="translate(436,85)"/>
<path d="M0 0 C0.33 0.99 0.66 1.98 1 3 C-2.3 6.3 -5.6 9.6 -9 13 C-9.99 12.67 -10.98 12.34 -12 12 C-8.04 8.04 -4.08 4.08 0 0 Z " fill="#5E5E5E" transform="translate(448,438)"/>
<path d="M0 0 C0 4.0744433 -2.09169249 6.11745033 -4.5 9.1875 C-4.92925781 9.74630859 -5.35851562 10.30511719 -5.80078125 10.88085938 C-6.86078055 12.25885847 -7.92956188 13.63009407 -9 15 C-9.33 14.01 -9.66 13.02 -10 12 C-8.1640625 9.3359375 -8.1640625 9.3359375 -5.625 6.375 C-4.79226562 5.39273438 -3.95953125 4.41046875 -3.1015625 3.3984375 C-1 1 -1 1 0 0 Z " fill="#1C1C1C" transform="translate(74,106)"/>
<path d="M0 0 C3.21043882 1.38188453 5.04936365 2.92421903 7.25 5.625 C8.03117187 6.57246094 8.03117187 6.57246094 8.828125 7.5390625 C9.40820312 8.26222656 9.40820312 8.26222656 10 9 C7 9 7 9 5.17578125 7.5390625 C4.56089844 6.90742188 3.94601563 6.27578125 3.3125 5.625 C2.68988281 4.99851562 2.06726563 4.37203125 1.42578125 3.7265625 C0 2 0 2 0 0 Z " fill="#5D5D5D" transform="translate(84,440)"/>
<path d="M0 0 C0.66 0.33 1.32 0.66 2 1 C-0.97 3.64 -3.94 6.28 -7 9 C-7.66 8.67 -8.32 8.34 -9 8 C-6.03 5.36 -3.06 2.72 0 0 Z " fill="#161616" transform="translate(112,69)"/>
</svg>
