<?xml version="1.0" standalone="no"?>
<!DOCTYPE svg PUBLIC "-//W3C//DTD SVG 20010904//EN"
 "http://www.w3.org/TR/2001/REC-SVG-20010904/DTD/svg10.dtd">
<svg version="1.0" xmlns="http://www.w3.org/2000/svg"
 width="1350.000000pt" height="537.000000pt" viewBox="0 0 1350.000000 537.000000"
 preserveAspectRatio="xMidYMid meet">
<metadata>
Created by potrace 1.10, written by Peter Selinger 2001-2011
</metadata>
<g transform="translate(0.000000,537.000000) scale(0.100000,-0.100000)"
fill="#ffffff" stroke="none">
<path d="M4910 5268 c-1 -57 -5 -134 -10 -173 -6 -38 -14 -115 -19 -170 -5
-55 -14 -113 -20 -128 -6 -16 -11 -42 -11 -59 0 -17 -7 -56 -16 -87 -8 -31
-22 -81 -31 -111 -8 -30 -21 -70 -29 -88 -8 -18 -14 -39 -14 -47 0 -7 -6 -26
-14 -42 -8 -15 -22 -46 -32 -68 -9 -22 -21 -47 -25 -55 -5 -8 -20 -37 -34 -65
-14 -27 -33 -62 -43 -77 -23 -36 -76 -112 -82 -118 -3 -3 -29 -35 -58 -72 -67
-84 -170 -181 -292 -272 -101 -75 -122 -90 -155 -106 -11 -6 -33 -19 -50 -30
-16 -10 -52 -30 -80 -45 -27 -14 -57 -29 -65 -34 -8 -5 -35 -18 -60 -29 -25
-11 -70 -32 -101 -46 -31 -14 -62 -26 -70 -26 -8 0 -19 -4 -24 -9 -10 -10 -77
-36 -130 -51 -40 -11 -92 -29 -133 -46 -18 -8 -41 -14 -51 -14 -10 0 -32 -7
-47 -15 -16 -8 -37 -15 -48 -15 -10 0 -39 -6 -65 -14 -106 -33 -239 -66 -306
-76 -27 -5 -63 -13 -78 -19 -16 -6 -43 -11 -62 -11 -19 0 -46 -5 -62 -11 -15
-6 -55 -15 -88 -19 -86 -12 -189 -29 -270 -46 -38 -8 -88 -14 -110 -14 -22 0
-67 -7 -100 -15 -33 -8 -82 -14 -110 -15 -27 0 -85 -7 -128 -15 -43 -8 -104
-15 -135 -15 -32 0 -92 -7 -135 -15 -43 -8 -107 -15 -141 -15 -35 0 -107 -7
-162 -15 -54 -8 -133 -15 -174 -15 -41 0 -106 -5 -145 -11 -38 -5 -160 -14
-270 -19 -110 -5 -234 -14 -275 -20 -41 -5 -130 -10 -197 -10 -67 0 -128 -3
-137 -6 -24 -9 -24 -189 0 -198 9 -3 66 -6 127 -6 62 0 180 -7 262 -15 83 -8
191 -15 240 -15 50 0 144 -7 210 -15 65 -8 153 -15 195 -15 41 0 116 -7 165
-15 50 -8 119 -15 155 -15 36 0 103 -7 150 -15 47 -8 112 -15 145 -15 33 -1
89 -7 125 -15 36 -8 90 -15 120 -15 30 0 82 -7 115 -15 33 -8 78 -15 100 -15
22 0 72 -6 110 -14 85 -18 189 -35 271 -45 34 -5 67 -12 74 -16 6 -4 37 -11
68 -15 54 -7 92 -15 192 -40 25 -6 59 -14 75 -16 17 -3 54 -11 83 -19 28 -8
78 -22 110 -31 31 -8 71 -20 87 -26 17 -5 46 -14 65 -18 39 -9 87 -25 138 -46
18 -8 39 -14 47 -14 8 0 31 -7 52 -16 75 -32 99 -42 143 -59 58 -23 296 -140
335 -165 17 -11 39 -24 50 -30 115 -58 368 -272 453 -384 25 -34 49 -63 52
-66 7 -6 60 -82 82 -118 9 -15 40 -74 68 -132 29 -58 58 -118 66 -133 8 -16
14 -35 14 -42 0 -8 6 -29 14 -47 13 -30 24 -68 57 -188 7 -25 16 -67 20 -95 4
-27 12 -77 18 -110 19 -109 41 -329 41 -418 l0 -87 56 0 56 0 -6 38 c-3 20 -8
100 -11 177 -7 185 -42 432 -77 545 -6 19 -15 51 -19 70 -22 104 -111 312
-196 457 -80 139 -252 340 -378 444 -82 67 -218 165 -255 182 -8 4 -28 16 -45
27 -16 10 -52 30 -80 45 -27 14 -57 29 -65 34 -15 9 -119 57 -190 88 -19 8
-48 21 -63 29 -16 8 -36 14 -46 14 -9 0 -25 6 -36 14 -11 7 -31 16 -45 19 -14
3 -41 11 -60 17 -103 37 -132 46 -270 85 -25 7 -68 20 -96 29 -29 9 -60 16
-69 16 -10 0 -41 6 -69 14 -82 23 -148 38 -196 46 -25 4 -65 12 -90 18 -77 18
-163 34 -225 42 -33 3 -87 12 -120 18 -104 19 -208 35 -280 42 -38 4 -115 12
-170 19 -55 6 -138 16 -185 22 -85 10 -231 21 -514 39 -82 5 -157 12 -168 15
-25 9 -23 24 5 30 12 2 364 1 782 -4 418 -4 3225 -8 6238 -9 l5477 -2 0 56 0
56 -6037 -6 c-3321 -3 -6132 -8 -6248 -11 -205 -6 -254 0 -230 24 6 6 82 15
170 20 315 20 451 31 511 41 33 5 82 10 108 10 44 0 135 11 331 41 39 6 102
15 140 19 39 5 95 13 125 19 153 28 189 35 235 41 28 4 71 12 98 19 114 27
144 34 182 41 67 12 207 48 295 76 25 8 53 14 62 14 10 0 32 6 50 14 42 17 94
35 133 46 36 10 89 28 130 46 17 7 50 20 75 29 89 34 346 158 405 196 17 10
37 22 45 26 62 29 238 164 339 259 189 178 347 419 443 679 32 85 40 111 49
153 5 23 13 51 19 61 5 11 10 33 10 49 0 16 7 49 15 72 8 23 15 60 15 81 0 21
6 66 14 101 8 35 17 142 21 238 3 96 8 190 12 208 l5 32 -56 0 -56 0 0 -102z
m-3990 -2593 c0 -11 -12 -15 -45 -15 -33 0 -45 4 -45 15 0 11 12 15 45 15 33
0 45 -4 45 -15z"/>
</g>
</svg>
