<?xml version="1.0" standalone="no"?>
<!DOCTYPE svg PUBLIC "-//W3C//DTD SVG 20010904//EN"
 "http://www.w3.org/TR/2001/REC-SVG-20010904/DTD/svg10.dtd">
<svg version="1.0" xmlns="http://www.w3.org/2000/svg"
 width="1350.000000pt" height="534.000000pt" viewBox="0 0 1350.000000 534.000000"
 preserveAspectRatio="xMidYMid meet">
<metadata>
Created by potrace 1.10, written by Peter Selinger 2001-2011
</metadata>
<g transform="translate(0.000000,534.000000) scale(0.100000,-0.100000)"
fill="#ffffff" stroke="none">
<path d="M8475 5168 c3 -95 11 -202 17 -238 6 -36 14 -94 18 -130 7 -61 12
-91 40 -200 6 -25 15 -63 20 -85 7 -38 13 -54 47 -150 44 -120 107 -251 164
-340 10 -16 22 -37 26 -45 3 -8 32 -49 63 -90 145 -191 407 -411 625 -524 49
-26 67 -35 103 -56 9 -6 24 -13 32 -16 8 -3 22 -10 30 -15 8 -5 22 -12 30 -15
8 -3 29 -11 45 -18 17 -8 50 -21 75 -31 25 -9 57 -23 72 -31 14 -8 34 -14 45
-14 10 0 27 -7 37 -15 11 -8 28 -15 38 -15 9 0 32 -6 50 -14 51 -21 99 -37
138 -46 19 -4 49 -13 65 -18 17 -6 55 -17 85 -25 30 -8 80 -22 111 -31 31 -9
64 -16 74 -16 10 0 41 -6 69 -14 89 -25 150 -39 201 -46 51 -8 114 -20 240
-46 39 -8 86 -14 105 -14 19 0 60 -7 90 -15 30 -8 75 -15 100 -15 25 0 74 -7
110 -15 36 -8 88 -14 116 -15 28 0 76 -5 105 -11 63 -12 222 -25 479 -39 102
-5 214 -16 250 -25 36 -8 76 -16 89 -17 32 -4 38 -26 9 -33 -13 -3 -113 2
-223 11 -186 16 -624 18 -6232 21 l-6033 4 0 -61 0 -61 6033 4 c5526 3 6048 5
6227 20 194 17 254 15 247 -6 -6 -19 -122 -37 -292 -48 -154 -9 -217 -14 -460
-39 -60 -7 -154 -16 -207 -20 -54 -5 -102 -11 -107 -15 -6 -3 -50 -10 -98 -15
-113 -11 -260 -35 -438 -70 -33 -7 -85 -16 -117 -20 -31 -4 -62 -11 -70 -16
-7 -5 -35 -12 -63 -15 -27 -4 -70 -13 -95 -19 -25 -7 -72 -19 -105 -27 -80
-20 -163 -42 -200 -55 -16 -5 -46 -14 -65 -18 -39 -9 -87 -25 -138 -46 -18 -8
-41 -14 -50 -14 -10 0 -27 -7 -38 -15 -10 -8 -27 -15 -36 -15 -10 0 -34 -7
-55 -16 -21 -9 -51 -23 -68 -30 -111 -47 -230 -105 -310 -150 -33 -18 -67 -37
-75 -41 -24 -11 -140 -92 -220 -153 -152 -115 -360 -346 -420 -465 -6 -11 -19
-33 -29 -50 -46 -72 -126 -252 -151 -340 -4 -16 -13 -43 -18 -60 -23 -66 -42
-143 -42 -167 0 -14 -7 -45 -15 -68 -8 -23 -15 -59 -15 -80 0 -21 -6 -73 -14
-116 -8 -44 -17 -154 -20 -246 l-6 -168 49 0 48 0 7 88 c22 296 42 459 68 557
6 22 15 58 19 80 12 62 47 175 75 243 31 74 74 167 97 207 85 148 156 242 268
354 73 73 287 245 329 264 8 4 29 16 45 26 85 54 282 152 395 196 25 9 59 22
75 29 41 18 94 36 130 46 39 11 91 29 133 46 18 8 40 14 48 14 9 0 37 7 63 14
57 18 137 40 216 59 33 8 83 21 110 27 28 7 75 16 107 20 31 4 61 11 68 15 7
4 37 11 68 15 32 4 83 13 115 19 138 27 176 33 247 42 41 4 93 13 115 19 22 5
63 10 90 10 28 0 77 7 110 15 33 8 85 15 115 15 30 0 90 7 133 15 43 8 104 15
135 15 32 0 100 7 152 15 52 8 124 15 160 15 36 0 110 7 165 15 55 8 138 15
185 15 47 0 144 7 215 15 72 8 180 15 240 15 103 0 280 12 388 26 l47 6 0 88
0 88 -47 6 c-98 13 -291 26 -393 26 -58 0 -163 7 -235 15 -71 8 -168 15 -215
15 -47 0 -128 7 -180 15 -52 8 -129 15 -170 15 -41 0 -115 7 -165 15 -49 8
-115 15 -146 15 -31 0 -81 5 -110 11 -30 6 -97 14 -149 19 -89 7 -130 13 -312
41 -40 7 -100 15 -133 19 -56 6 -100 14 -245 42 -30 5 -80 14 -112 18 -31 4
-61 11 -68 15 -7 4 -37 11 -68 15 -32 4 -79 13 -107 20 -27 6 -77 18 -110 26
-33 8 -81 21 -106 29 -26 8 -57 15 -68 15 -12 0 -32 5 -44 12 -12 6 -38 15
-57 19 -37 8 -85 23 -138 45 -18 8 -43 14 -55 14 -12 0 -31 7 -41 15 -11 8
-28 15 -37 15 -10 0 -30 6 -46 14 -15 8 -48 22 -73 31 -55 21 -110 45 -130 57
-8 4 -22 11 -30 14 -31 13 -97 47 -155 79 -33 19 -69 39 -80 45 -33 17 -54 31
-170 116 -127 94 -263 226 -344 334 -50 65 -70 97 -128 195 -13 21 -46 89 -69
142 -47 105 -67 165 -94 273 -7 25 -18 68 -26 96 -8 28 -14 65 -14 82 0 17 -5
43 -11 59 -6 15 -14 73 -19 128 -4 55 -14 171 -21 258 l-13 157 -48 0 -49 0 6
-172z m4205 -2499 c0 -9 -38 -19 -77 -19 -30 0 -41 9 -27 22 7 8 104 5 104 -3z"/>
</g>
</svg>
